Coordinates
version=1
nRows=6
nColumns=36
inDegrees=yes

Units are S.I. units (second, meters, Newtons, ...)
If the header above contains a line with 'inDegrees', this indicates whether rotational values are in degrees (yes) or radians (no).

endheader
time	pelvis_tilt	pelvis_list	pelvis_rotation	pelvis_tx	pelvis_ty	pelvis_tz	hip_flexion_r	hip_adduction_r	hip_rotation_r	knee_angle_r	knee_angle_r_beta	ankle_angle_r	subtalar_angle_r	mtp_angle_r	hip_flexion_l	hip_adduction_l	hip_rotation_l	knee_angle_l	knee_angle_l_beta	ankle_angle_l	subtalar_angle_l	mtp_angle_l	lumbar_extension	lumbar_bending	lumbar_rotation	arm_flex_r	arm_add_r	arm_rot_r	elbow_flex_r	pro_sup_r	arm_flex_l	arm_add_l	arm_rot_l	elbow_flex_l	pro_sup_l
      0.96000000	    -15.13841963	      0.31093254	     -5.67161665	     -0.51237039	      1.13396256	     -0.57688045	     45.61477093	     -8.13166338	    -10.39975397	     26.99515296	      0.47115430	     -9.60794987	      5.16305963	     -6.41749833	     45.55421195	    -15.23376732	    -10.88257120	     11.38986647	      0.19879067	    -31.55901951	      2.73701904	     -6.41749833	    -28.31299107	     -3.29037841	     -9.90007103	     44.02115730	    -51.47507311	     16.43114796	    111.94293290	    102.39970062	    -11.98558900	    -31.93257537	    -20.68054642	    124.41867802	    113.96347310
      0.97000000	    -14.93190121	      0.27222861	     -5.30241014	     -0.49927500	      1.11517673	     -0.57720998	     45.10426705	     -8.29876912	    -10.23503062	     25.12145265	      0.43845206	    -10.19997147	      4.06191439	     -6.60913421	     45.23214251	    -15.16649326	    -10.55768339	     11.11333867	      0.19396435	    -31.66349933	      3.13897180	     -6.60913421	    -28.23726684	     -3.20796839	    -11.78165859	     46.04898907	    -52.70240010	     18.60988876	    112.22193695	     98.75370453	    -16.18274194	    -33.40744487	    -26.47293229	    128.68474893	    112.51579185
      0.98000000	    -14.67905417	      0.21669340	     -4.94708983	     -0.48610387	      1.09547674	     -0.57739596	     44.54350391	     -8.43896673	     -9.99371787	     23.58210461	      0.41158537	    -10.72586921	      2.89556390	     -6.63707790	     44.96475004	    -15.11973894	    -10.06470489	     11.27599443	      0.19680323	    -31.83911138	      3.22041016	     -6.63707790	    -28.17542233	     -3.19450187	    -12.38737897	     45.69876116	    -55.18699721	     17.92179031	    113.60327317	     98.50808267	    -18.60086362	    -35.47685862	    -30.71228967	    132.01335209	    112.71822439
      0.99000000	    -14.24255561	      0.14097215	     -4.61747752	     -0.47326130	      1.07474894	     -0.57748582	     43.86284286	     -8.54538454	     -9.63550770	     22.41681111	      0.39124716	    -11.38720114	      1.74362353	     -6.79545415	     44.68647142	    -15.11727216	     -9.55456550	     11.95392422	      0.20863534	    -32.05534909	      3.38972746	     -6.79545415	    -28.36379127	     -3.05414584	    -14.96657299	     50.08277102	    -55.67413477	     22.20391900	    113.28021571	     96.12723241	    -24.77171031	    -36.43056693	    -39.59299227	    136.19199149	    112.26705768
      1.00000000	    -13.91104893	      0.14298451	     -4.22086305	     -0.46030857	      1.05280526	     -0.57766816	     43.38645027	     -8.77730674	     -9.25375805	     21.71146975	      0.37893663	    -12.19332286	      1.09788119	     -6.83103427	     44.64170024	    -14.96063762	     -8.89609125	     13.03647560	      0.22752942	    -32.61923031	      3.54129933	     -6.83103427	    -28.41153108	     -3.11189930	    -15.67506690	     50.30127044	    -58.26271418	     21.83273365	    114.77858008	     95.81731694	    -28.25053719	    -38.54597289	    -45.86355158	    138.98180603	    111.96372533
      1.01000000	    -13.48593187	      0.12715778	     -3.65272885	     -0.44779455	      1.02949336	     -0.57826140	     42.96160476	     -9.17318484	     -9.01517920	     21.62555476	      0.37743713	    -12.51807290	      1.15971502	     -6.95380175	     44.85046664	    -14.67900814	     -8.10828290	     14.83100209	      0.25884982	    -33.05073662	      3.61641466	     -6.95380175	    -28.50215147	     -2.99042923	    -18.74784547	     56.11204625	    -58.19819651	     27.40923548	    113.97546931	     93.88940149	    -35.92148340	    -38.50648830	    -57.55676722	    142.20854933	    111.22751850
